<?xml version="1.0" encoding="UTF-8" standalone="no"?>
<!-- Created with Inkscape (http://www.inkscape.org/) -->

<svg
   xmlns:dc="http://purl.org/dc/elements/1.1/"
   xmlns:cc="http://creativecommons.org/ns#"
   xmlns:rdf="http://www.w3.org/1999/02/22-rdf-syntax-ns#"
   xmlns:svg="http://www.w3.org/2000/svg"
   xmlns="http://www.w3.org/2000/svg"
   xmlns:sodipodi="http://sodipodi.sourceforge.net/DTD/sodipodi-0.dtd"
   xmlns:inkscape="http://www.inkscape.org/namespaces/inkscape"
   width="744.09448819"
   height="1052.3622047"
   id="svg99823"
   version="1.1"
   inkscape:version="0.47pre4 r22446"
   sodipodi:docname="island.pdf">
  <defs
     id="defs99825">
    <marker
       inkscape:stockid="Arrow2Mend"
       orient="auto"
       refY="0.0"
       refX="0.0"
       id="Arrow2Mend"
       style="overflow:visible;">
      <path
         id="path12289"
         style="font-size:12.0;fill-rule:evenodd;stroke-width:0.62500000;stroke-linejoin:round;"
         d="M 8.7185878,4.0337352 L -2.2072895,0.016013256 L 8.7185884,-4.0017078 C 6.9730900,-1.6296469 6.9831476,1.6157441 8.7185878,4.0337352 z "
         transform="scale(0.6) rotate(180) translate(0,0)" />
    </marker>
    <marker
       inkscape:stockid="Arrow1Mend"
       orient="auto"
       refY="0.0"
       refX="0.0"
       id="Arrow1Mend"
       style="overflow:visible;">
      <path
         id="path12271"
         d="M 0.0,0.0 L 5.0,-5.0 L -12.5,0.0 L 5.0,5.0 L 0.0,0.0 z "
         style="fill-rule:evenodd;stroke:#000000;stroke-width:1.0pt;marker-start:none;"
         transform="scale(0.4) rotate(180) translate(10,0)" />
    </marker>
    <marker
       inkscape:stockid="TriangleOutM"
       orient="auto"
       refY="0.0"
       refX="0.0"
       id="TriangleOutM"
       style="overflow:visible">
      <path
         id="path12408"
         d="M 5.77,0.0 L -2.88,5.0 L -2.88,-5.0 L 5.77,0.0 z "
         style="fill-rule:evenodd;stroke:#000000;stroke-width:1.0pt;marker-start:none"
         transform="scale(0.4)" />
    </marker>
    <marker
       inkscape:stockid="Arrow2Lend"
       orient="auto"
       refY="0.0"
       refX="0.0"
       id="Arrow2Lend"
       style="overflow:visible;">
      <path
         id="path12283"
         style="font-size:12.0;fill-rule:evenodd;stroke-width:0.62500000;stroke-linejoin:round;"
         d="M 8.7185878,4.0337352 L -2.2072895,0.016013256 L 8.7185884,-4.0017078 C 6.9730900,-1.6296469 6.9831476,1.6157441 8.7185878,4.0337352 z "
         transform="scale(1.1) rotate(180) translate(1,0)" />
    </marker>
    <inkscape:perspective
       sodipodi:type="inkscape:persp3d"
       inkscape:vp_x="0 : 526.18109 : 1"
       inkscape:vp_y="0 : 1000 : 0"
       inkscape:vp_z="744.09448 : 526.18109 : 1"
       inkscape:persp3d-origin="372.04724 : 350.78739 : 1"
       id="perspective99831" />
    <inkscape:perspective
       id="perspective99807"
       inkscape:persp3d-origin="0.5 : 0.33333333 : 1"
       inkscape:vp_z="1 : 0.5 : 1"
       inkscape:vp_y="0 : 1000 : 0"
       inkscape:vp_x="0 : 0.5 : 1"
       sodipodi:type="inkscape:persp3d" />
    <inkscape:perspective
       id="perspective101200"
       inkscape:persp3d-origin="0.5 : 0.33333333 : 1"
       inkscape:vp_z="1 : 0.5 : 1"
       inkscape:vp_y="0 : 1000 : 0"
       inkscape:vp_x="0 : 0.5 : 1"
       sodipodi:type="inkscape:persp3d" />
  </defs>
  <sodipodi:namedview
     id="base"
     pagecolor="#ffffff"
     bordercolor="#666666"
     borderopacity="1.0"
     inkscape:pageopacity="0.0"
     inkscape:pageshadow="2"
     inkscape:zoom="0.98994949"
     inkscape:cx="361.20712"
     inkscape:cy="439.1878"
     inkscape:document-units="px"
     inkscape:current-layer="layer1"
     showgrid="true"
     inkscape:snap-global="true"
     inkscape:window-width="1280"
     inkscape:window-height="950"
     inkscape:window-x="0"
     inkscape:window-y="25"
     inkscape:window-maximized="1">
    <inkscape:grid
       type="xygrid"
       id="grid100374" />
  </sodipodi:namedview>
  <metadata
     id="metadata99828">
    <rdf:RDF>
      <cc:Work
         rdf:about="">
        <dc:format>image/svg+xml</dc:format>
        <dc:type
           rdf:resource="http://purl.org/dc/dcmitype/StillImage" />
        <dc:title></dc:title>
      </cc:Work>
    </rdf:RDF>
  </metadata>
  <g
     inkscape:label="Layer 1"
     inkscape:groupmode="layer"
     id="layer1">
    <path
       style="fill:none;stroke:#000000;stroke-width:1px;stroke-linecap:butt;stroke-linejoin:miter;stroke-opacity:1"
       d="m 380,342.36218 -160,290 310,0 -150,-290 z"
       id="path100382" />
    <text
       xml:space="preserve"
       style="font-size:40px;font-style:normal;font-variant:normal;font-weight:normal;font-stretch:normal;fill:#000000;fill-opacity:1;stroke:none;font-family:LMRoman12;-inkscape-font-specification:LMRoman12"
       x="-622.36218"
       y="100"
       id="text100384"
       transform="matrix(0,-1,1,0,0,0)"><tspan
         sodipodi:role="line"
         x="-622.36218"
         y="100"
         id="tspan100388">Access to Islands</tspan></text>
    <path
       style="fill:none;stroke:#000000;stroke-width:10;stroke-linecap:butt;stroke-linejoin:miter;stroke-opacity:1;stroke-miterlimit:4;stroke-dasharray:none;marker-end:url(#Arrow2Mend)"
       d="m 160,342.36218 0,280"
       id="path100392"
       sodipodi:nodetypes="cc" />
    <g
       transform="translate(-14,-390)"
       id="g88455">
      <path
         sodipodi:type="arc"
         style="fill:none;stroke:#0000ff;stroke-width:1;stroke-miterlimit:4;stroke-opacity:1;stroke-dasharray:none"
         id="path4911"
         sodipodi:cx="385"
         sodipodi:cy="257.36218"
         sodipodi:rx="5"
         sodipodi:ry="5"
         d="m 390,257.36218 c 0,2.76143 -2.23858,5 -5,5 -2.76142,0 -5,-2.23857 -5,-5 0,-2.76142 2.23858,-5 5,-5 2.76142,0 5,2.23858 5,5 z"
         transform="translate(5,740)" />
      <path
         sodipodi:type="arc"
         style="fill:none;stroke:#ff0000;stroke-width:1;stroke-miterlimit:4;stroke-opacity:1;stroke-dasharray:none"
         id="path4911-8"
         sodipodi:cx="385"
         sodipodi:cy="257.36218"
         sodipodi:rx="5"
         sodipodi:ry="5"
         d="m 390,257.36218 c 0,2.76143 -2.23858,5 -5,5 -2.76142,0 -5,-2.23857 -5,-5 0,-2.76142 2.23858,-5 5,-5 2.76142,0 5,2.23858 5,5 z"
         transform="translate(-45,660)" />
      <path
         sodipodi:type="arc"
         style="fill:none;stroke:#00ff00;stroke-width:1;stroke-miterlimit:4;stroke-opacity:1;stroke-dasharray:none"
         id="path4911-8-4"
         sodipodi:cx="385"
         sodipodi:cy="257.36218"
         sodipodi:rx="5"
         sodipodi:ry="5"
         d="m 390,257.36218 c 0,2.76143 -2.23858,5 -5,5 -2.76142,0 -5,-2.23857 -5,-5 0,-2.76142 2.23858,-5 5,-5 2.76142,0 5,2.23858 5,5 z"
         transform="translate(41,680)" />
      <path
         sodipodi:type="arc"
         style="fill:none;stroke:#ff8000;stroke-width:1;stroke-miterlimit:4;stroke-opacity:1;stroke-dasharray:none"
         id="path4911-8-4-9"
         sodipodi:cx="385"
         sodipodi:cy="257.36218"
         sodipodi:rx="5"
         sodipodi:ry="5"
         d="m 390,257.36218 c 0,2.76143 -2.23858,5 -5,5 -2.76142,0 -5,-2.23857 -5,-5 0,-2.76142 2.23858,-5 5,-5 2.76142,0 5,2.23858 5,5 z"
         transform="translate(-33,575.03046)" />
      <path
         sodipodi:type="arc"
         style="fill:none;stroke:#800080;stroke-width:1;stroke-miterlimit:4;stroke-opacity:1;stroke-dasharray:none"
         id="path4911-8-4-9-0"
         sodipodi:cx="385"
         sodipodi:cy="257.36218"
         sodipodi:rx="5"
         sodipodi:ry="5"
         d="m 390,257.36218 c 0,2.76143 -2.23858,5 -5,5 -2.76142,0 -5,-2.23857 -5,-5 0,-2.76142 2.23858,-5 5,-5 2.76142,0 5,2.23858 5,5 z"
         transform="translate(5,620)" />
      <path
         sodipodi:type="arc"
         style="fill:none;stroke:#0089ff;stroke-width:1;stroke-miterlimit:4;stroke-opacity:1;stroke-dasharray:none;marker-end:none"
         id="path4911-8-4-9-0-5"
         sodipodi:cx="385"
         sodipodi:cy="257.36218"
         sodipodi:rx="5"
         sodipodi:ry="5"
         d="m 390,257.36218 c 0,2.76143 -2.23858,5 -5,5 -2.76142,0 -5,-2.23857 -5,-5 0,-2.76142 2.23858,-5 5,-5 2.76142,0 5,2.23858 5,5 z"
         transform="translate(59,604)" />
      <path
         style="fill:none;stroke:#000000;stroke-width:1;stroke-linecap:butt;stroke-linejoin:miter;stroke-miterlimit:4;stroke-opacity:1;stroke-dasharray:1, 2;stroke-dashoffset:0"
         d="m 400,982.36218 20,-30"
         id="path5023" />
      <path
         style="fill:none;stroke:#000000;stroke-width:1;stroke-linecap:butt;stroke-linejoin:miter;stroke-miterlimit:4;stroke-opacity:1;stroke-dasharray:1, 2;stroke-dashoffset:0"
         d="m 380,982.36218 -30,-50 0,0 0,0"
         id="path5025" />
      <path
         style="fill:none;stroke:#000000;stroke-width:1;stroke-linecap:butt;stroke-linejoin:miter;stroke-miterlimit:4;stroke-opacity:1;stroke-dasharray:1, 2;stroke-dashoffset:0"
         d="m 350,902.36218 30,-20"
         id="path5027" />
      <path
         style="fill:none;stroke:#000000;stroke-width:1;stroke-linecap:butt;stroke-linejoin:miter;stroke-miterlimit:4;stroke-opacity:1;stroke-dasharray:1, 2;stroke-dashoffset:0"
         d="m 430,922.36218 c 10,-50 10,-50 10,-50"
         id="path5031" />
      <path
         style="fill:none;stroke:#000000;stroke-width:1;stroke-linecap:butt;stroke-linejoin:miter;stroke-miterlimit:4;stroke-opacity:1;stroke-dasharray:1, 2;stroke-dashoffset:0"
         d="m 340,902.36218 c 10,-60 10,-60 10,-60"
         id="path5033" />
    </g>
    <rect
       style="fill:none;stroke:#000000;stroke-width:1.06066012;stroke-linejoin:miter;stroke-miterlimit:4;stroke-opacity:1;stroke-dasharray:none;stroke-dashoffset:0"
       id="rect101247"
       width="90"
       height="40"
       x="330"
       y="632.36218" />
  </g>
</svg>
